<svg xmlns:xlink="http://www.w3.org/1999/xlink" xmlns="http://www.w3.org/2000/svg" viewBox="0 0 24 24" id="loading-bird-anim-0" aria-hidden="true" class="r-1p0dtai r-13gxpu9 r-4qtqp9 r-yyyyoo r-wy61xf r-1d2f490 r-1et2o r-ywje51 r-dnmrzs r-u8s1d r-zchlnj r-1plcrui r-ipm5af r-lrvibr r-1blnp2b" width="72"  height="72" ><g fill="#1DA1F2"><path d="M23.643 4.937c-.835.37-1.732.62-2.675.733.962-.576 1.7-1.49 2.048-2.578-.9.534-1.897.922-2.958 1.13-.85-.904-2.06-1.47-3.4-1.47-2.572 0-4.658 2.086-4.658 4.66 0 .364.042.718.12 1.06-3.873-.195-7.304-2.05-9.602-4.868-.4.69-.63 1.49-.63 2.342 0 1.616.823 3.043 2.072 3.878-.764-.025-1.482-.234-2.11-.583v.06c0 2.257 1.605 4.14 3.737 4.568-.392.106-.803.162-1.227.162-.3 0-.593-.028-.877-.082.593 1.85 2.313 3.198 4.352 3.234-1.595 1.25-3.604 1.995-5.786 1.995-.376 0-.747-.022-1.112-.065 2.062 1.323 4.51 2.093 7.14 2.093 8.57 0 13.255-7.098 13.255-13.254 0-.2-.005-.402-.014-.602.91-.658 1.7-1.477 2.323-2.41z" fill="#1DA1F2"></path><path d="M 10,30 C 133,152 74,240 217,95 h 19 s 230,176 119,241 C 60,153 142,137 221,100 h 77 s 43,8 215,210 C 112,230 85,61 58,18 h 186 s 206,255 145,221 C 2,174 140,230 0,39 h 194 s 125,150 119,157 C 56,24 143,141 28,66 h 119 s 138,114 79,102 C 51,39 196,142 104,111 h 84 s 53,39 252,215 C 152,239 85,240 51,94 h 44 s 8,170 87,250 C 177,186 230,165 30,174 h 7 s 78,96 192,195 C 15,203 138,88 21,12 h 14 s 231,238 129,166 C 143,170 132,246 191,56 h 220 s 236,105 157,106 C 147,96 124,186 239,169 h 79 s 27,2 177,144 C 212,103 191,189 218,20 h 7 s 103,23 82,12 C 6,150 72,210 233,184 h 112 s 248,192 37,206 C 227,132 255,163 202,8 h 216 s 151,232 27,89 C 99,255 140,161 21,216 h 61 s 174,132 204,51 C 226,225 209,177 58,94 h 158 s 98,153 236,243" fill="#1D9BF0" fill-opacity="0.03"></path></g></svg>